<svg width="36" height="36" viewBox="0 0 36 36" fill="none" xmlns="http://www.w3.org/2000/svg">
<g id="icon/24/cross">
<path id="Fill 1" d="M19.5911 18L29.6711 7.91999C30.1106 7.48049 30.1106 6.76949 29.6711 6.32999C29.2316 5.89049 28.5191 5.89049 28.0796 6.32999L17.9996 16.4085L7.92113 6.32999C7.48163 5.89049 6.76913 5.89049 6.32963 6.32999C5.89012 6.76949 5.89012 7.48049 6.32963 7.91999L16.4096 18L6.32963 28.08C5.89012 28.5195 5.89012 29.2305 6.32963 29.67C6.55013 29.8905 6.83813 30 7.12463 30C7.41263 30 7.70063 29.8905 7.92113 29.67L17.9996 19.5915L28.0796 29.67C28.3001 29.8905 28.5881 30 28.8746 30C29.1626 30 29.4506 29.8905 29.6711 29.67C30.1106 29.2305 30.1106 28.5195 29.6711 28.08L19.5911 18Z" fill="#208834"/>
</g>
</svg>