<svg width="36" height="36" viewBox="0 0 36 36" fill="none" xmlns="http://www.w3.org/2000/svg">
<g id="icon/24/location pin">
<g id="streamline-icon-pin@12x12">
<path id="Path" fill-rule="evenodd" clip-rule="evenodd" d="M20.8125 15.1875C20.8125 13.6342 19.5533 12.375 18 12.375C16.4467 12.375 15.1875 13.6342 15.1875 15.1875C15.1875 16.7408 16.4467 18 18 18C19.5533 18 20.8125 16.7408 20.8125 15.1875ZM17.4375 15.1875C17.4375 14.8768 17.6893 14.625 18 14.625C18.3107 14.625 18.5625 14.8768 18.5625 15.1875C18.5625 15.4982 18.3107 15.75 18 15.75C17.6893 15.75 17.4375 15.4982 17.4375 15.1875Z" fill="#208834"/>
<path id="Path_2" fill-rule="evenodd" clip-rule="evenodd" d="M11.25 15.1875C11.25 11.4596 14.2721 8.4375 18 8.4375C21.7279 8.4375 24.75 11.4596 24.75 15.1875C24.75 16.5027 23.923 18.6985 22.7404 21.0679L22.2811 21.9632L21.7941 22.8665C21.6277 23.168 21.4576 23.4695 21.2848 23.7695L20.7586 24.6639C20.6699 24.8118 20.5806 24.959 20.491 25.1054L19.9501 25.9714L19.4062 26.8081C19.0936 27.2795 18.5656 27.5628 18 27.5628C17.4344 27.5628 16.9064 27.2795 16.5938 26.8081L16.0499 25.9714C15.9593 25.8293 15.8689 25.6859 15.7787 25.5415L15.2414 24.664C15.1526 24.5161 15.0643 24.3675 14.9766 24.2183L14.4581 23.3186C14.3732 23.168 14.2891 23.0173 14.2059 22.8665L13.7189 21.9632L13.2596 21.0679C12.077 18.6985 11.25 16.5027 11.25 15.1875ZM22.5 15.1875C22.5 12.7022 20.4853 10.6875 18 10.6875C15.5147 10.6875 13.5 12.7022 13.5 15.1875C13.5 15.8606 13.8924 17.0358 14.5088 18.428L14.8349 19.1409C14.8921 19.2623 14.9506 19.3848 15.0105 19.5084L15.3838 20.2606C15.4482 20.3876 15.5138 20.5152 15.5803 20.6434L15.9903 21.4171L16.4189 22.1954L16.8615 22.9701L17.3133 23.7335L17.7697 24.4775L18 24.8415C18.0789 24.7176 18.1578 24.5924 18.2368 24.4659L18.7098 23.6942L19.1775 22.9022L19.6347 22.0988L20.0764 21.2928L20.4972 20.4929L20.8921 19.7081C21.779 17.901 22.411 16.2883 22.4913 15.3728L22.5 15.1875Z" fill="#208834"/>
</g>
<circle id="Oval" cx="18" cy="18" r="17.25" stroke="#208834" stroke-width="1.5"/>
</g>
</svg>