<svg width="36" height="36" viewBox="0 0 36 36" fill="none" xmlns="http://www.w3.org/2000/svg">
<g id="icon/24/menu">
<path id="icon" fill-rule="evenodd" clip-rule="evenodd" d="M36 8.625C36 8.00325 35.496 7.5 34.875 7.5H1.125C0.50325 7.5 0 8.00325 0 8.625C0 9.24675 0.50325 9.75 1.125 9.75H34.875C35.496 9.75 36 9.24675 36 8.625ZM36 27.375C36 26.754 35.496 26.25 34.875 26.25H1.125C0.50325 26.25 0 26.754 0 27.375C0 27.996 0.50325 28.5 1.125 28.5H34.875C35.496 28.5 36 27.996 36 27.375ZM1.125 19.125H34.875C35.496 19.125 36 18.6218 36 18C36 17.3782 35.496 16.875 34.875 16.875H1.125C0.50325 16.875 0 17.3782 0 18C0 18.6218 0.50325 19.125 1.125 19.125Z" fill="#208834"/>
</g>
</svg>