<svg width="36" height="36" viewBox="0 0 36 36" fill="none" xmlns="http://www.w3.org/2000/svg">
<g id="icon/24/phone">
<circle id="Oval" cx="18" cy="18" r="17.25" stroke="#208834" stroke-width="1.5"/>
<path id="Path" fill-rule="evenodd" clip-rule="evenodd" d="M9.98142 9.76033L10.5624 9.17934C11.5422 8.2008 13.1294 8.2008 14.1101 9.18032L16.5542 11.6273C17.025 12.0976 17.2896 12.7358 17.2896 13.4013C17.2896 14.0668 17.025 14.705 16.6067 15.1192L16.531 15.2019C16.4541 15.3031 16.4634 15.4492 16.5547 15.5407L20.4686 19.4553C20.5169 19.5036 20.5824 19.5308 20.6507 19.5308C20.7189 19.5308 20.7844 19.5036 20.8888 19.4028L21.0895 19.231C22.0832 18.4756 23.4901 18.5651 24.3807 19.4546L26.8272 21.8996C27.8057 22.8794 27.8057 24.4666 26.8267 25.4468L26.2462 26.0273C24.4977 27.7758 21.7693 28.0751 19.6578 26.7303C15.5643 23.9645 12.0453 20.4456 9.26674 16.3317C7.93487 14.2384 8.23186 11.5103 9.98142 9.76033ZM14.9632 13.2183L12.5192 10.7713C12.4179 10.6701 12.2537 10.6701 12.1529 10.7708L11.5725 11.3512C10.5691 12.3549 10.3988 13.9195 11.1481 15.0981C13.7486 18.9477 17.0624 22.2612 20.8918 24.8491C22.088 25.6106 23.6525 25.439 24.6552 24.4363L25.2352 23.8563C25.3364 23.755 25.3364 23.5909 25.2359 23.4903L22.7904 21.0463C22.6985 20.9546 22.5524 20.9453 22.5102 20.9741L22.4247 21.0453C21.9544 21.5162 21.3162 21.7808 20.6507 21.7808C19.9852 21.7808 19.347 21.5162 18.8771 21.0457L14.9632 17.1311C14.074 16.2408 13.9844 14.8338 14.7879 13.7812L14.9642 13.5833C15.0125 13.5351 15.0396 13.4696 15.0396 13.4013C15.0396 13.333 15.0125 13.2676 14.9632 13.2183Z" fill="#208834"/>
</g>
</svg>
