<svg width="36" height="36" viewBox="0 0 36 36" fill="none" xmlns="http://www.w3.org/2000/svg">
<g id="icon/24/email">
<circle id="Oval" cx="18" cy="18" r="17.25" stroke="#208834" stroke-width="1.5"/>
<g id="streamline-icon-email-action-unread@12x12">
<path id="Combined Shape" fill-rule="evenodd" clip-rule="evenodd" d="M25.875 11.4375H10.125C9.50368 11.4375 9 11.9412 9 12.5625V23.8125C9 24.4338 9.50368 24.9375 10.125 24.9375H25.875C26.4963 24.9375 27 24.4338 27 23.8125V12.5625C27 11.9412 26.4963 11.4375 25.875 11.4375ZM24.75 15.064V22.6875H11.25V15.064L15.8014 18.5647L16.0352 18.7303C17.3081 19.5584 18.9787 19.5032 20.1987 18.5647L24.75 15.064ZM22.8492 13.6875H13.1508L17.1732 16.7813C17.6119 17.1188 18.2055 17.1525 18.6753 16.8825L18.8269 16.7813L22.8492 13.6875Z" fill="#208834"/>
</g>
</g>
</svg>