<svg class="icon" xmlns="http://www.w3.org/2000/svg" width="24" height="24" viewBox="0 0 24 24">
    <g fill="none" fill-rule="evenodd">
        <g fill="#FFFFFF" fill-rule="nonzero">
            <g>
                <path d="M13.16 0c1.454.003 2.152.011 2.77.03l.433.017.585.025c1.277.058 2.15.261 2.912.558.79.307 1.459.717 2.126 1.384.667.667 1.077 1.336 1.384 2.126.297.763.5 1.635.558 2.912l.025.585.016.433c.02.618.028 1.316.03 2.77l.001.843V13.16c-.003 1.454-.011 2.152-.03 2.77l-.017.433-.025.585c-.058 1.277-.261 2.15-.558 2.912-.307.79-.717 1.459-1.384 2.126-.667.667-1.336 1.077-2.126 1.384-.763.297-1.635.5-2.912.558l-.585.025-.433.016c-.618.02-1.316.028-2.77.03l-.843.001H10.84c-1.454-.003-2.152-.011-2.77-.03l-.433-.017-.585-.025c-1.277-.058-2.15-.261-2.912-.558-.79-.307-1.459-.717-2.126-1.384C1.347 21.319.937 20.65.63 19.86c-.297-.763-.5-1.635-.558-2.912l-.025-.585-.016-.433c-.02-.618-.028-1.316-.03-2.77v-2.32c.002-1.454.01-2.152.03-2.77l.016-.433.025-.585C.13 5.775.333 4.902.63 4.14c.307-.79.717-1.459 1.384-2.126C2.681 1.347 3.35.937 4.14.63 4.903.333 5.775.13 7.052.072l.585-.025L8.07.03C8.688.01 9.386.003 10.84 0zm-.02 2.163h-2.28c-1.594.002-2.253.011-2.92.036l-.213.008-.576.025c-1.17.053-1.805.249-2.228.413-.56.218-.96.478-1.38.898-.42.42-.68.82-.898 1.38-.164.423-.36 1.058-.413 2.228l-.025.576-.008.212c-.025.668-.034 1.327-.036 2.921v2.28c.002 1.594.011 2.253.036 2.92l.008.213.025.576c.053 1.17.249 1.805.413 2.228.218.56.478.96.898 1.38.42.42.82.68 1.38.898.423.164 1.058.36 2.228.413 1.096.05 1.528.066 3.71.07h2.279c2.181-.004 2.613-.02 3.709-.07 1.17-.053 1.805-.249 2.228-.413.56-.218.96-.478 1.38-.898.42-.42.68-.82.898-1.38.164-.423.36-1.058.413-2.228l.025-.576.008-.212c.025-.668.034-1.327.036-2.921v-2.28c-.002-1.594-.011-2.253-.036-2.92l-.008-.213-.025-.576c-.053-1.17-.249-1.805-.413-2.228-.218-.56-.478-.96-.898-1.38-.42-.42-.82-.68-1.38-.898-.423-.164-1.058-.36-2.228-.413l-.576-.025-.212-.008c-.668-.025-1.327-.034-2.921-.036zM12 5.838c3.403 0 6.162 2.759 6.162 6.162S15.403 18.162 12 18.162 5.838 15.403 5.838 12 8.597 5.838 12 5.838zM12 8c-2.21 0-4 1.79-4 4s1.79 4 4 4 4-1.79 4-4-1.79-4-4-4zm6.406-3.846c.795 0 1.44.645 1.44 1.44 0 .796-.645 1.44-1.44 1.44-.796 0-1.44-.644-1.44-1.44 0-.795.644-1.44 1.44-1.44z" transform="translate(-292 -388) translate(212 388) translate(80)"/>
            </g>
        </g>
    </g>
</svg>