<svg class="icon" xmlns="http://www.w3.org/2000/svg" width="24" height="24" viewBox="0 0 24 24">
    <g fill="none" fill-rule="evenodd">
        <g fill="#FFFFFF" fill-rule="nonzero">
            <g>
                <path d="M23 22h-4.862v-7.03c0-1.841-.76-3.097-2.433-3.097-1.28 0-1.991.847-2.322 1.664-.124.294-.105.702-.105 1.11V22H8.461s.062-12.454 0-13.586h4.817v2.132c.285-.933 1.824-2.263 4.28-2.263 3.048 0 5.442 1.954 5.442 6.162V22zM3.59 6.714h-.031C2.006 6.714 1 5.675 1 4.36 1 3.017 2.036 2 3.62 2 5.2 2 6.173 3.014 6.204 4.355c0 1.317-1.004 2.36-2.615 2.36zm-2.035 1.7h4.288V22H1.555V8.414z" transform="translate(-332 -388) translate(212 388) translate(120)"/>
            </g>
        </g>
    </g>
</svg>