<svg xmlns="http://www.w3.org/2000/svg" width="24" height="24" viewBox="0 0 24 24">
    <g fill="none" fill-rule="evenodd">
        <g fill="#208834" fill-rule="nonzero">
            <g>
                <g>
                    <g>
                        <g>
                            <path d="M12 0c6.627 0 12 5.373 12 12s-5.373 12-12 12S0 18.627 0 12 5.373 0 12 0zm5.722 20.804c-3.312-2.738-8.13-2.74-11.445 0C7.923 21.877 9.89 22.5 12 22.5c2.091 0 4.04-.611 5.677-1.665zM12 1.5C6.201 1.5 1.5 6.201 1.5 12c0 3.136 1.375 5.951 3.555 7.875 3.963-3.502 9.932-3.498 13.889 0C21.124 17.952 22.5 15.137 22.5 12c0-5.799-4.701-10.5-10.5-10.5zm0 2.25c3.313 0 6 2.687 6 6s-2.687 6-6 6-6-2.687-6-6 2.687-6 6-6zm0 1.5c-2.485 0-4.5 2.015-4.5 4.5s2.015 4.5 4.5 4.5 4.5-2.015 4.5-4.5-2.015-4.5-4.5-4.5z" transform="translate(-1201 -292) translate(0 256) translate(1152 24) translate(0 12) translate(49)"/>
                        </g>
                    </g>
                </g>
            </g>
        </g>
    </g>
</svg>
