<svg width="102" height="24" viewBox="0 0 102 24" fill="none" xmlns="http://www.w3.org/2000/svg">
<rect width="102" height="24" fill="#181A20"/>
<path fill-rule="evenodd" clip-rule="evenodd" d="M11.9332 22.9714C12.1396 23.5543 11.8645 24 11.2111 24H10.4889C9.97303 24 9.62913 23.76 9.45718 23.28L6.01821 13.8857H2.47606V23.1086C2.47606 23.6914 2.13216 24 1.54754 24H0.894134C0.309508 24 0 23.6914 0 23.1086V0.891429C0 0.308571 0.309508 0 0.894134 0H5.81187C9.45718 0 11.4518 1.64571 11.4518 5.07429V8.81143C11.4518 11.3143 10.3857 12.8571 8.42549 13.5086L11.9332 22.9714ZM2.47606 2.22857V11.6914H5.67431C7.97842 11.6914 8.97573 10.7314 8.97573 8.22857V5.69143C8.97573 3.18857 7.97842 2.22857 5.67431 2.22857H2.47606ZM18.8112 0C18.2266 0 17.9171 0.308571 17.9171 0.891429V23.1086C17.9171 23.6914 18.2266 24 18.8112 24H19.4646C20.0492 24 20.3931 23.6914 20.3931 23.1086V12.9257H27.1679V23.1086C27.1679 23.6914 27.5118 24 28.0964 24H28.7498C29.3345 24 29.644 23.6914 29.644 23.1086V0.891429C29.644 0.308571 29.3345 0 28.7498 0H28.0964C27.5118 0 27.1679 0.308571 27.1679 0.891429V10.6629H20.3931V0.891429C20.3931 0.308571 20.0492 0 19.4646 0H18.8112ZM42.5401 14.88V23.1086C42.5401 23.6914 42.2306 24 41.646 24H40.9582C40.3736 24 40.0641 23.6914 40.0641 23.1086V14.88L35.2151 0.994286C34.9744 0.377143 35.2839 0 35.9373 0H36.6595C37.1753 0 37.5192 0.274286 37.6912 0.754286L41.3021 12.0686L44.9474 0.754286C45.1194 0.274286 45.4632 0 45.9791 0H46.6669C47.3203 0 47.6298 0.377143 47.3891 0.994286L42.5401 14.88ZM62.4862 0.891429C62.4862 0.308571 62.1423 0 61.592 0H52.1349C51.5502 0 51.2407 0.308571 51.2407 0.891429V1.33714C51.2407 1.92 51.5502 2.22857 52.1349 2.22857H55.6082V23.1086C55.6082 23.6914 55.9521 24 56.5024 24H57.1902C57.7748 24 58.0843 23.6914 58.0843 23.1086V2.22857H61.592C62.1423 2.22857 62.4862 1.92 62.4862 1.33714V0.891429ZM67.4039 0.891429C67.4039 0.308571 67.7134 0 68.298 0H68.9514C69.5361 0 69.88 0.308571 69.88 0.891429V10.6629H76.6548V0.891429C76.6548 0.308571 76.9986 0 77.5833 0H78.2367C78.8213 0 79.1308 0.308571 79.1308 0.891429V23.1086C79.1308 23.6914 78.8213 24 78.2367 24H77.5833C76.9986 24 76.6548 23.6914 76.6548 23.1086V12.9257H69.88V23.1086C69.88 23.6914 69.5361 24 68.9514 24H68.298C67.7134 24 67.4039 23.6914 67.4039 23.1086V0.891429ZM94.8125 19.3714L99.5927 6.03429V23.1086C99.5927 23.6914 99.9022 24 100.487 24H101.106C101.69 24 102 23.6914 102 23.1086V0.891429C102 0.308571 101.69 0 101.106 0H100.315C99.7991 0 99.4208 0.274286 99.2832 0.72L93.8152 15.8743L88.4504 0.72C88.2785 0.24 87.9346 0 87.4187 0H86.6966C86.1119 0 85.8024 0.308571 85.8024 0.891429V23.1086C85.8024 23.6914 86.1119 24 86.6966 24H87.2124C87.797 24 88.1065 23.6914 88.1065 23.1086V6.03429L92.8867 19.3714C93.0587 19.8514 93.4026 20.0914 93.884 20.0914C94.3311 20.0914 94.6406 19.8514 94.8125 19.3714Z" fill="white"/>
</svg>