<svg xmlns="http://www.w3.org/2000/svg" width="102" height="24" viewBox="0 0 102 24">
    <g fill="none" fill-rule="evenodd">
        <g fill="#208834" fill-rule="nonzero">
            <g>
                <g>
                    <path d="M11.933 22.971c.207.583-.069 1.029-.722 1.029h-.722c-.516 0-.86-.24-1.032-.72l-3.439-9.394H2.476v9.223c0 .582-.344.891-.928.891H.894C.31 24 0 23.691 0 23.109V.89C0 .31.31 0 .894 0h4.918c3.645 0 5.64 1.646 5.64 5.074v3.737c0 2.503-1.066 4.046-3.027 4.698l3.508 9.462zM2.476 2.23v9.462h3.198c2.304 0 3.302-.96 3.302-3.462V5.69c0-2.502-.998-3.462-3.302-3.462H2.476zM17.917.89c0-.582.31-.891.894-.891h.654c.584 0 .928.309.928.891v9.772h6.775V.89c0-.582.344-.891.928-.891h.654c.584 0 .894.309.894.891V23.11c0 .582-.31.891-.894.891h-.654c-.584 0-.928-.309-.928-.891V12.926h-6.775v10.183c0 .582-.344.891-.928.891h-.654c-.584 0-.894-.309-.894-.891V.89zM42.54 14.88v8.229c0 .582-.31.891-.894.891h-.688c-.584 0-.894-.309-.894-.891V14.88L35.215.994c-.24-.617.069-.994.722-.994h.722c.516 0 .86.274 1.032.754l3.611 11.315L44.947.754C45.12.274 45.463 0 45.98 0h.688c.653 0 .963.377.722.994L42.54 14.88zM61.592 0c.55 0 .894.309.894.891v.446c0 .583-.344.892-.894.892h-3.508v20.88c0 .582-.31.891-.894.891h-.688c-.55 0-.894-.309-.894-.891V2.229h-3.473c-.585 0-.894-.309-.894-.892V.891c0-.582.31-.891.894-.891h9.457zm5.812.891c0-.582.31-.891.894-.891h.653c.585 0 .929.309.929.891v9.772h6.775V.89c0-.582.344-.891.928-.891h.654c.584 0 .894.309.894.891V23.11c0 .582-.31.891-.894.891h-.654c-.584 0-.928-.309-.928-.891V12.926H69.88v10.183c0 .582-.344.891-.929.891h-.653c-.585 0-.894-.309-.894-.891V.89zm32.189 5.143l-4.78 13.337c-.172.48-.482.72-.929.72-.481 0-.825-.24-.997-.72l-4.78-13.337V23.11c0 .582-.31.891-.895.891h-.515c-.585 0-.895-.309-.895-.891V.89c0-.582.31-.891.895-.891h.722c.516 0 .86.24 1.031.72l5.365 15.154L99.283.72c.138-.446.516-.72 1.032-.72h.79c.585 0 .895.309.895.891V23.11c0 .582-.31.891-.894.891h-.62c-.584 0-.893-.309-.893-.891V6.034z" transform="translate(-112 -292) translate(0 256) translate(112 36)"/>
                </g>
            </g>
        </g>
    </g>
</svg>
