<svg width="36" height="36" viewBox="0 0 36 36" fill="none" xmlns="http://www.w3.org/2000/svg">
<g id="icon/24/search">
<path id="Combined Shape" fill-rule="evenodd" clip-rule="evenodd" d="M8.95988 1.17137C16.4417 -2.00843 25.084 1.47925 28.2643 8.96059C30.526 14.2809 29.4147 20.1896 25.8928 24.3027L35.6686 34.0798C36.1079 34.5191 36.1078 35.2315 35.6684 35.6708C35.2291 36.1101 34.5168 36.11 34.0774 35.6706L24.3024 25.8942C23.1844 26.8527 21.9024 27.6583 20.4751 28.265C12.9946 31.445 4.35087 27.9569 1.17066 20.4758C-2.00927 12.9953 1.47877 4.35158 8.95988 1.17137ZM23.6019 23.4721C23.5787 23.4918 23.556 23.5127 23.5341 23.5347C23.5119 23.5568 23.4908 23.5797 23.4708 23.6032C22.385 24.6737 21.0832 25.5617 19.5949 26.1944C13.2581 28.8881 5.93544 25.9332 3.24134 19.5956C0.547586 13.2588 3.5025 5.93618 9.84008 3.24206C16.1781 0.548381 23.4995 3.50296 26.1937 9.84083C28.2292 14.6291 27.0394 19.9803 23.6019 23.4721Z" fill="#208834"/>
</g>
</svg>
