<svg xmlns="http://www.w3.org/2000/svg" width="24" height="24" viewBox="0 0 24 24">
    <g fill="none" fill-rule="evenodd">
        <g fill="#208834" fill-rule="nonzero">
            <g>
                <g>
                    <g>
                        <g>
                            <g>
                                <path d="M18.844 5.974c1.508 3.547.767 7.486-1.581 10.228l6.517 6.518c.293.293.293.767 0 1.06-.293.293-.767.293-1.06 0l-6.517-6.517c-.745.639-1.6 1.176-2.552 1.58-4.987 2.12-10.75-.205-12.87-5.193C-1.338 8.663.988 2.9 5.976.78c4.987-2.12 10.749.206 12.87 5.194zM6.561 2.16C2.336 3.957.366 8.84 2.162 13.064c1.796 4.225 6.678 6.195 10.903 4.399 1.007-.428 1.886-1.032 2.616-1.76l.01-.013.013-.013c2.317-2.326 3.123-5.91 1.76-9.117C15.668 2.335 10.787.365 6.56 2.161z" transform="translate(-1304 -292) translate(0 256) translate(1152 24) translate(97) translate(0 12) translate(55)"/>
                            </g>
                        </g>
                    </g>
                </g>
            </g>
        </g>
    </g>
</svg>
