<svg class="icon" xmlns="http://www.w3.org/2000/svg" width="24" height="24" viewBox="0 0 24 24">
    <g fill="none" fill-rule="evenodd">
        <g fill="#FFFFFF" fill-rule="nonzero">
            <g>
                <path d="M24 4.368c-.882.401-1.831.673-2.827.794 1.017-.624 1.797-1.613 2.165-2.792-.952.578-2.005.998-3.129 1.223C19.313 2.613 18.033 2 16.616 2c-2.718 0-4.922 2.26-4.922 5.049 0 .396.042.78.126 1.15-4.092-.211-7.72-2.22-10.15-5.277-.423.748-.666 1.616-.666 2.54 0 1.751.87 3.297 2.19 4.203-.805-.025-1.566-.254-2.23-.63v.062c0 2.447 1.697 4.488 3.95 4.95-.412.12-.847.178-1.296.178-.317 0-.627-.03-.927-.09.626 2.006 2.444 3.466 4.599 3.505-1.685 1.355-3.81 2.163-6.115 2.163-.397 0-.79-.023-1.175-.07C2.18 21.163 4.768 22 7.548 22c9.058 0 14.01-7.692 14.01-14.365 0-.22-.005-.439-.013-.654.962-.712 1.797-1.6 2.455-2.613" transform="translate(-252 -388) translate(212 388) translate(40)"/>
            </g>
        </g>
    </g>
</svg>